<svg xmlns="http://www.w3.org/2000/svg" width="1255" height="836" viewBox="0 0 1255 836">
<g>
<path d="M 497.94 408.92 C481.55,410.46 475.66,410.21 465.50,407.54 C435.11,399.58 419.36,384.58 418.20,362.47 C417.28,345.14 424.82,329.01 442.70,310.02 C471.17,279.77 528.64,249.16 585.50,233.97 C618.90,225.05 651.28,221.11 668.30,223.91 C680.28,225.88 676.43,229.55 656.69,234.97 C626.51,243.25 610.18,248.57 588.00,257.33 C545.33,274.18 506.07,298.45 491.05,317.26 C488.31,320.69 484.37,326.65 482.29,330.50 C478.88,336.82 478.51,338.23 478.51,345.00 C478.50,351.37 478.91,353.20 481.23,357.14 C489.80,371.72 510.45,379.03 542.88,378.97 C559.15,378.94 567.82,378.14 581.80,375.40 C586.36,374.50 590.38,374.05 590.73,374.40 C592.20,375.87 584.19,382.04 574.71,386.73 C551.10,398.41 522.79,406.59 497.94,408.92 ZM 528.50 576.65 C515.65,582.64 497.90,575.57 492.32,562.23 C487.90,551.64 488.68,538.77 494.33,529.23 C499.61,520.31 507.63,516.12 519.58,516.04 C525.21,516.01 527.67,516.51 531.58,518.50 C534.29,519.87 536.84,520.99 537.25,521.00 C537.66,521.00 538.00,514.47 538.00,506.50 L 538.00 492.00 L 551.00 492.00 L 551.00 534.03 C551.00,575.53 550.97,576.07 548.94,576.82 C547.81,577.24 545.37,577.41 543.51,577.19 C540.84,576.88 539.91,576.18 539.11,573.90 C537.96,570.60 536.85,570.27 534.87,572.66 C534.12,573.57 531.25,575.37 528.50,576.65 ZM 462.78 576.02 C456.28,578.83 445.11,579.64 439.84,577.67 C429.84,573.93 423.37,568.26 419.67,560.00 C416.75,553.50 416.72,540.19 419.61,533.95 C422.57,527.55 427.47,522.32 433.41,519.21 C438.01,516.80 439.55,516.54 449.50,516.52 C459.86,516.50 460.81,516.67 465.88,519.48 C487.29,531.34 485.38,566.22 462.78,576.02 ZM 609.50 576.22 C595.43,581.00 581.88,579.04 572.61,570.89 C566.85,565.82 564.38,561.16 563.05,552.83 C560.38,536.13 568.44,521.54 582.62,517.42 C591.19,514.93 603.70,515.87 609.04,519.41 C617.20,524.81 621.36,533.68 620.81,544.50 L 620.50 550.50 L 598.25 550.77 C582.35,550.96 576.84,550.92 576.05,552.83 C575.63,553.83 576.51,555.36 577.86,557.73 C578.00,557.97 578.14,558.22 578.29,558.48 C580.89,563.08 586.58,566.65 592.80,567.59 C597.94,568.37 608.00,566.55 613.19,563.91 C615.24,562.86 617.19,562.00 617.51,562.00 C617.83,562.00 617.96,564.59 617.80,567.75 L 617.50 573.50 ZM 402.82 575.95 C395.64,578.43 380.20,579.49 373.11,577.98 C366.15,576.51 356.95,571.71 351.28,566.59 C334.00,550.97 333.87,518.62 351.02,502.58 C363.83,490.59 384.88,487.12 404.19,493.80 L 409.50 495.64 L 409.62 501.34 C409.69,504.47 409.37,507.27 408.90,507.56 C408.44,507.85 406.77,507.42 405.20,506.60 C401.12,504.49 389.70,502.00 384.19,502.01 C378.31,502.02 370.64,504.31 365.85,507.48 C353.33,515.77 348.85,534.51 355.86,549.22 C361.16,560.30 368.57,565.00 381.98,565.76 C391.27,566.29 399.70,564.96 405.38,562.06 C409.42,560.00 409.47,560.03 410.39,565.13 C411.50,571.27 409.94,573.49 402.82,575.95 ZM 440.97 565.25 C446.96,568.31 449.70,568.56 455.32,566.55 C460.15,564.83 462.68,562.54 465.29,557.50 C467.84,552.58 468.08,542.24 465.77,536.88 C461.38,526.69 446.06,523.62 437.43,531.20 C432.33,535.67 431.00,538.90 431.00,546.79 C431.00,556.50 433.73,561.56 440.97,565.25 ZM 513.50 566.12 C518.57,568.45 522.44,568.44 527.50,566.11 C535.88,562.24 538.00,557.80 538.00,544.11 C538.00,535.26 537.79,534.16 535.75,532.29 C525.66,523.06 508.60,526.31 504.06,538.32 C502.51,542.44 502.77,552.50 504.54,556.75 C506.61,561.70 508.74,563.93 513.50,566.12 ZM 576.63 540.21 C576.90,540.64 583.84,541.00 592.06,541.00 L 607.00 541.00 L 607.00 537.95 C607.00,533.77 604.67,529.63 601.53,528.19 C597.22,526.23 587.02,526.69 583.19,529.02 C580.00,530.97 575.58,538.51 576.63,540.21 Z" fill="rgb(10,71,140)"/>
<path d="M 672.00 800.55 C660.02,802.08 614.94,803.29 603.50,802.38 C593.11,801.55 571.18,798.84 563.00,797.37 C539.31,793.12 509.80,784.65 486.00,775.29 C453.50,762.50 408.90,735.86 384.02,714.37 C362.43,695.71 335.94,668.38 324.44,652.89 C323.37,651.46 320.67,647.86 318.43,644.89 C299.50,619.80 278.93,583.05 269.54,557.57 C267.53,552.11 264.17,544.01 262.07,539.57 C257.38,529.61 256.70,527.77 253.57,516.42 C248.05,496.40 243.80,472.82 241.42,449.00 C239.53,430.11 240.12,392.60 242.53,378.50 L 243.90 370.50 L 243.30 381.50 C241.68,411.02 242.76,449.68 245.38,456.32 C246.24,458.49 246.51,451.28 246.54,425.32 C246.58,391.82 247.29,381.58 251.14,359.20 C253.23,347.04 253.00,353.85 250.77,370.10 C248.83,384.27 248.52,390.86 248.52,418.50 C248.51,454.11 249.43,464.11 255.54,494.50 C259.96,516.49 261.53,521.72 263.96,522.49 C266.44,523.28 268.28,528.95 268.49,536.50 C268.71,544.30 269.75,547.79 272.10,548.53 C273.15,548.87 274.00,550.05 274.00,551.18 C274.00,552.96 274.44,553.14 277.36,552.59 C281.34,551.85 281.66,552.19 285.38,561.00 C291.01,574.36 292.60,577.72 297.50,586.50 C300.26,591.45 303.64,597.68 305.01,600.33 C306.38,602.99 308.40,606.20 309.50,607.45 C310.60,608.70 311.62,610.27 311.77,610.94 C312.23,612.95 315.17,617.00 316.17,617.00 C316.69,617.00 316.84,617.45 316.50,618.01 C316.15,618.56 316.57,619.28 317.43,619.61 C318.29,619.94 318.74,620.62 318.43,621.11 C318.12,621.61 318.57,622.28 319.43,622.61 C320.29,622.94 320.74,623.62 320.43,624.11 C320.12,624.61 320.57,625.28 321.43,625.61 C322.29,625.94 322.74,626.62 322.43,627.11 C322.12,627.61 322.57,628.28 323.43,628.61 C324.29,628.94 324.76,629.58 324.48,630.04 C324.20,630.49 324.99,631.58 326.23,632.45 C327.48,633.32 328.33,634.30 328.11,634.62 C327.55,635.48 334.86,645.00 336.08,645.00 C336.65,645.00 336.89,645.37 336.61,645.83 C335.95,646.88 351.18,664.44 364.34,677.82 C374.56,688.20 393.17,705.00 394.45,705.00 C395.19,705.00 400.71,709.31 407.38,715.07 C411.65,718.77 427.41,730.00 428.32,730.00 C428.61,730.00 432.37,732.23 436.67,734.95 C446.64,741.25 472.25,754.39 486.50,760.51 C517.91,774.00 555.15,783.74 590.50,787.70 C608.83,789.75 647.70,789.99 663.50,788.14 C701.84,783.66 736.91,774.50 770.98,760.06 C843.09,729.50 907.02,673.49 946.85,606.00 C950.26,600.22 953.47,594.83 953.98,594.00 C954.50,593.17 955.91,590.60 957.12,588.29 C958.33,585.97 959.77,584.36 960.33,584.70 C960.95,585.09 961.07,584.64 960.65,583.52 C960.08,582.04 960.21,581.93 961.39,582.91 C962.37,583.72 963.03,583.76 963.47,583.05 C963.83,582.47 964.94,582.00 965.95,582.00 C966.96,582.00 968.05,581.33 968.36,580.50 C969.08,578.63 968.08,575.83 966.95,576.53 C964.81,577.85 966.75,570.23 969.25,567.50 C970.76,565.85 971.99,563.94 972.00,563.25 C972.00,562.56 972.79,561.97 973.75,561.92 C976.79,561.79 979.24,561.17 980.03,560.32 C982.46,557.73 993.07,525.72 998.02,506.05 C1001.47,492.34 1005.76,464.67 1007.06,447.84 C1008.51,428.89 1007.77,391.36 1005.63,375.00 C1002.86,353.95 1002.81,353.41 1003.84,355.00 C1004.97,356.75 1007.35,372.41 1009.07,389.50 C1010.30,401.62 1009.80,453.42 1008.36,462.90 C1007.92,465.80 1008.04,467.09 1008.72,466.68 C1009.28,466.33 1010.03,464.12 1010.39,461.77 C1010.75,459.42 1011.66,453.45 1012.41,448.50 C1013.46,441.57 1013.80,440.54 1013.88,444.00 C1014.12,454.37 1009.43,486.80 1005.47,502.14 C1002.92,512.03 997.07,530.23 995.53,533.03 C994.77,534.42 992.48,540.05 990.44,545.53 C988.41,551.01 986.41,555.95 986.00,556.50 C985.59,557.05 984.70,559.30 984.01,561.50 C982.43,566.55 965.38,601.31 960.18,610.09 C943.19,638.79 925.18,661.79 899.51,687.59 C873.81,713.42 863.15,722.27 837.00,739.52 C817.07,752.67 799.24,762.39 779.37,770.94 C744.73,785.85 708.37,795.88 672.00,800.55 ZM 583.42 472.39 C581.13,473.27 581.10,473.25 580.38,470.38 C578.51,462.91 582.82,433.28 589.16,410.17 C590.26,406.13 590.97,402.64 590.74,402.40 C590.50,402.17 587.88,403.04 584.90,404.35 C581.93,405.66 574.50,408.12 568.39,409.82 C539.67,417.80 512.79,420.69 493.29,417.88 C483.75,416.50 481.56,415.01 489.05,414.98 C508.80,414.90 544.22,406.06 579.82,392.32 C590.48,388.20 594.36,386.24 595.01,384.65 C595.82,382.65 599.75,370.03 608.29,342.00 C612.28,328.88 611.97,328.17 603.83,331.81 C598.88,334.02 576.48,341.43 570.50,342.84 C568.30,343.35 559.30,345.58 550.50,347.79 C541.70,350.00 531.35,352.32 527.50,352.96 C523.65,353.59 519.71,354.27 518.75,354.46 C517.79,354.65 516.78,354.45 516.50,354.01 C515.54,352.44 536.16,340.87 557.50,330.99 C565.21,327.42 600.84,313.94 609.75,311.22 C614.61,309.74 615.94,308.75 619.44,304.01 C628.88,291.24 636.17,286.00 644.50,286.00 C649.99,286.00 651.72,287.85 650.03,291.92 C647.57,297.87 648.52,298.09 660.50,294.39 C704.92,280.66 745.01,271.83 781.00,267.85 C798.00,265.97 826.00,266.27 833.38,268.42 C836.74,269.40 838.89,270.51 838.38,271.00 C837.30,272.07 819.74,275.48 807.50,277.01 C791.18,279.05 756.04,286.36 729.00,293.35 C697.32,301.54 646.66,317.45 643.14,320.32 C641.40,321.73 634.91,335.54 631.99,344.00 C630.76,347.58 628.73,352.98 627.48,356.00 C625.08,361.83 622.49,372.82 623.32,373.66 C624.11,374.44 655.70,357.88 667.65,350.42 C673.62,346.69 683.79,339.90 690.25,335.32 C696.72,330.74 702.49,327.00 703.07,327.00 C704.43,327.00 700.89,331.98 694.54,339.00 C680.66,354.35 655.80,372.12 628.07,386.50 C614.96,393.30 616.98,390.35 609.95,413.00 C602.09,438.31 587.58,470.79 583.42,472.39 ZM 825.91 719.68 C818.21,724.83 812.68,728.03 814.50,726.28 C815.05,725.75 820.67,721.81 827.00,717.51 C867.46,690.01 899.56,657.66 926.73,617.00 C959.09,568.57 977.82,517.34 985.21,457.00 C987.14,441.25 986.82,399.76 984.63,382.50 C975.70,312.14 949.67,250.33 906.33,196.62 C879.33,163.17 849.34,136.62 813.50,114.48 C800.13,106.22 772.94,92.48 760.00,87.45 C678.14,55.62 592.44,53.63 511.68,81.68 C424.24,112.04 351.72,175.26 308.84,258.50 C289.25,296.54 275.86,339.64 272.03,377.00 C269.51,401.65 268.77,423.02 269.90,438.86 C271.23,457.67 271.26,466.96 269.98,462.67 C268.76,458.62 267.00,433.09 267.02,419.81 C267.04,403.10 269.81,372.50 273.16,352.00 C275.22,339.38 284.33,305.56 287.98,297.00 C289.04,294.52 291.55,288.23 293.57,283.00 C298.97,269.03 313.99,239.97 321.31,229.32 C322.52,227.57 325.22,223.40 327.33,220.05 C333.96,209.48 349.83,189.03 360.29,177.56 C378.52,157.57 377.69,158.37 399.79,139.67 C406.97,133.59 427.23,118.90 436.48,113.07 C484.77,82.59 540.53,63.89 597.99,58.90 C613.37,57.57 655.09,58.21 670.00,60.01 C679.87,61.20 709.43,66.86 719.00,69.39 C727.67,71.69 744.33,76.97 746.24,78.03 C747.19,78.57 748.54,79.02 749.24,79.03 C749.93,79.05 752.30,79.94 754.50,81.00 C756.70,82.06 758.97,82.95 759.55,82.97 C764.15,83.12 803.99,103.29 820.00,113.58 C848.41,131.84 872.46,152.35 895.52,178.00 C908.98,192.97 925.32,214.38 932.50,226.45 C933.60,228.30 937.01,234.02 940.07,239.16 C948.16,252.73 960.31,278.03 964.01,289.00 C965.77,294.23 968.24,300.98 969.51,304.00 C970.77,307.02 972.78,313.33 973.98,318.00 C975.18,322.67 976.83,328.98 977.65,332.00 C981.81,347.30 983.66,357.19 986.46,379.00 C990.27,408.71 988.57,454.91 982.49,486.50 C980.77,495.42 971.41,530.22 970.03,532.83 C969.55,533.75 967.49,539.22 965.46,545.00 C960.97,557.78 960.43,559.05 952.17,576.00 C939.65,601.69 921.09,630.73 907.09,646.56 C905.11,648.79 901.15,653.33 898.28,656.66 C890.44,665.77 860.36,694.95 858.78,694.99 C858.39,694.99 855.83,696.99 853.10,699.41 C847.33,704.54 836.70,712.46 825.91,719.68 ZM 996.91 435.77 C996.37,444.97 995.54,455.20 995.06,458.50 C994.45,462.74 994.38,461.12 994.85,453.00 C996.08,431.38 995.44,394.39 993.59,380.14 C991.58,364.66 989.94,358.91 990.55,369.50 L 990.95 376.50 L 989.49 368.50 C980.87,321.34 971.40,291.64 953.59,256.00 C925.02,198.83 879.69,148.40 824.25,112.09 C818.06,108.04 813.00,104.54 813.00,104.30 C813.00,104.07 813.52,104.20 814.15,104.60 C814.84,105.02 815.04,104.87 814.64,104.22 C813.69,102.69 792.29,90.94 779.77,85.08 C744.88,68.75 699.29,56.55 660.00,53.04 C645.24,51.71 609.82,51.71 595.00,53.03 C552.00,56.85 506.72,69.70 467.58,89.18 C454.83,95.53 442.00,102.76 442.00,103.60 C442.00,103.89 442.52,103.80 443.15,103.40 C443.89,102.95 444.04,103.13 443.55,103.91 C443.14,104.59 442.14,104.89 441.35,104.58 C440.55,104.27 440.14,104.41 440.43,104.89 C440.72,105.36 436.36,108.81 430.73,112.55 C406.44,128.69 389.71,142.29 370.65,161.38 C318.01,214.11 282.78,280.30 268.38,353.50 C267.00,360.50 266.45,361.94 265.90,360.00 C265.52,358.62 265.15,357.95 265.09,358.50 C265.03,359.05 264.55,362.20 264.02,365.50 C261.66,380.17 260.71,392.17 260.05,415.50 L 259.35 440.50 L 259.18 417.50 C258.84,369.11 266.41,329.09 284.59,283.26 C310.47,217.98 356.16,159.51 412.60,119.44 C469.57,79.00 530.54,56.69 599.84,50.92 C615.73,49.59 654.65,50.17 669.50,51.95 C702.36,55.89 735.51,64.28 766.50,76.50 C780.19,81.90 805.07,94.23 813.68,99.88 C821.72,105.16 839.06,116.29 841.13,117.50 C845.78,120.22 864.98,136.13 877.00,147.21 C903.66,171.81 926.50,200.04 948.19,235.21 C952.09,241.53 964.08,265.87 969.02,277.50 C989.27,325.11 999.87,385.27 996.91,435.77 ZM 760.82 576.99 C754.75,579.75 746.82,579.60 740.38,576.60 C733.33,573.31 729.95,568.63 729.34,561.29 C728.65,553.07 731.56,547.73 739.00,543.57 C744.28,540.63 745.02,540.49 757.19,540.35 C764.17,540.26 770.31,539.93 770.83,539.60 C772.31,538.69 770.44,531.99 768.04,529.60 C766.32,527.87 764.45,527.44 757.57,527.15 C749.93,526.83 747.76,527.17 737.26,530.28 C736.84,530.40 736.25,528.31 735.94,525.63 L 735.38 520.77 L 739.94 518.72 C743.20,517.26 747.34,516.55 754.51,516.24 C767.59,515.65 771.82,516.84 777.95,522.80 C784.26,528.95 785.00,532.59 785.00,557.46 L 785.00 576.82 L 781.21 577.47 C776.46,578.27 772.00,576.68 772.00,574.19 C772.00,571.22 770.92,570.92 767.94,573.05 C766.40,574.14 763.20,575.92 760.82,576.99 ZM 871.78 566.81 L 871.50 577.50 L 866.50 577.69 C863.75,577.80 860.94,577.65 860.25,577.36 C859.28,576.95 859.00,567.30 859.00,533.92 L 859.00 491.00 L 872.00 491.00 L 872.00 515.44 C872.00,531.61 872.36,540.10 873.06,540.54 C873.65,540.90 879.63,535.75 886.36,529.10 L 898.60 517.00 L 905.80 517.00 C909.76,517.00 913.00,517.35 913.00,517.77 C913.00,518.19 908.24,523.25 902.43,529.02 C896.62,534.78 891.44,540.27 890.92,541.22 C890.17,542.57 891.10,544.27 895.29,549.22 C906.45,562.38 916.96,576.25 916.43,577.11 C915.59,578.48 902.62,578.18 900.72,576.75 C899.80,576.06 896.90,572.52 894.27,568.89 C884.62,555.51 880.90,551.00 879.55,551.00 C878.78,551.00 876.78,552.15 875.11,553.56 C872.11,556.09 872.06,556.27 871.78,566.81 ZM 655.88 577.38 C651.78,578.19 646.51,578.17 645.67,577.33 C645.30,576.97 645.00,560.09 645.00,539.83 L 645.00 503.00 L 617.00 503.00 L 617.00 492.26 L 621.25 491.57 C623.59,491.20 639.13,491.21 655.80,491.60 L 686.09 492.31 L 685.80 497.40 L 685.50 502.50 L 659.00 503.06 L 659.00 576.75 ZM 654.00 812.80 C623.15,813.76 622.90,813.76 596.24,812.81 C567.31,811.78 547.34,808.96 546.88,805.84 C546.81,805.38 546.69,804.59 546.62,804.08 C546.39,802.38 545.25,801.90 535.83,799.51 C530.67,798.20 524.43,796.48 521.97,795.69 C519.51,794.91 514.80,793.46 511.50,792.48 C501.77,789.60 480.97,781.49 474.50,778.06 C467.87,774.54 467.89,774.54 483.50,780.25 C515.69,792.03 541.80,798.67 577.50,804.16 C590.94,806.23 596.03,806.47 626.50,806.48 C670.67,806.50 689.78,804.28 725.88,794.89 C741.06,790.94 773.56,780.54 775.50,779.00 C776.66,778.08 784.00,775.97 784.00,776.56 C784.00,777.10 777.41,780.05 765.24,784.95 C753.33,789.75 734.18,795.96 722.00,798.97 C710.73,801.76 708.22,802.82 708.37,804.76 C708.55,807.08 701.22,809.59 690.47,810.87 C685.54,811.46 669.12,812.33 654.00,812.80 ZM 838.85 577.55 C826.01,580.97 810.51,577.13 803.48,568.80 C798.16,562.50 796.02,556.33 796.01,547.24 C796.00,537.92 797.76,532.98 803.45,526.33 C808.89,519.98 816.04,516.69 825.53,516.19 C833.93,515.75 843.52,517.19 846.45,519.34 C847.77,520.30 848.01,521.41 847.51,524.11 C846.38,530.14 845.85,530.48 840.43,528.63 C834.02,526.45 825.53,526.58 820.31,528.95 C812.39,532.54 807.86,542.31 809.53,552.20 C810.47,557.71 817.86,565.38 823.78,566.95 C828.52,568.22 836.09,567.24 842.57,564.54 C844.62,563.68 846.41,563.09 846.53,563.24 C846.65,563.38 847.04,565.55 847.41,568.06 C848.22,573.71 846.62,575.48 838.85,577.55 ZM 698.39 576.42 C697.94,577.61 696.36,578.00 692.06,578.00 C688.91,578.00 686.03,577.70 685.67,577.33 C685.30,576.97 685.00,563.24 685.00,546.83 L 685.00 517.00 L 690.40 517.00 C695.51,517.00 695.86,517.17 696.85,520.00 C697.43,521.65 698.11,523.00 698.38,523.00 C698.65,523.00 701.14,521.58 703.93,519.85 C709.77,516.22 716.84,515.13 722.47,516.99 C726.02,518.16 726.15,518.37 725.53,521.71 C724.25,528.51 723.23,530.19 721.08,529.04 C718.50,527.66 710.43,527.71 707.68,529.12 C706.48,529.74 704.04,531.62 702.25,533.32 L 699.00 536.39 L 699.00 555.61 C699.00,566.19 698.73,575.55 698.39,576.42 ZM 317.96 190.96 C313.01,197.77 310.88,199.96 312.92,196.16 C315.26,191.78 333.52,169.11 344.42,157.05 C369.96,128.78 410.54,96.89 439.75,82.11 C445.33,79.29 445.15,80.05 439.33,83.91 C436.76,85.61 434.92,87.00 435.25,87.00 C435.57,87.00 443.61,83.18 453.12,78.50 C469.88,70.26 476.17,67.74 469.00,72.16 C467.08,73.35 463.37,75.10 460.78,76.06 C458.18,77.02 454.13,79.01 451.78,80.49 C449.42,81.96 441.64,86.61 434.47,90.83 C418.29,100.35 402.09,111.68 389.43,122.34 C384.10,126.83 378.90,130.99 377.88,131.59 C376.85,132.19 375.03,133.54 373.83,134.59 C372.64,135.64 371.99,135.94 372.39,135.25 C372.79,134.56 372.65,134.00 372.08,134.00 C370.72,134.00 337.00,166.94 337.00,168.26 C337.00,168.82 333.87,172.57 330.04,176.60 C326.21,180.63 320.77,187.09 317.96,190.96 ZM 918.87 165.75 C921.24,168.64 922.95,171.00 922.67,171.00 C922.39,171.00 915.71,164.53 907.83,156.62 C899.95,148.71 891.68,141.11 889.46,139.74 C887.23,138.36 883.10,135.13 880.28,132.56 C875.11,127.86 874.19,127.12 860.81,116.93 C841.03,101.86 823.94,91.08 800.50,78.86 C792.25,74.55 785.97,71.03 786.54,71.02 C787.11,71.01 794.76,74.59 803.54,78.98 C819.07,86.75 823.41,88.53 819.44,85.53 C814.74,81.98 820.41,84.51 829.34,89.95 C854.77,105.46 877.50,123.31 898.02,143.92 C907.11,153.04 916.49,162.86 918.87,165.75 ZM 748.50 567.11 C749.60,567.59 753.31,567.85 756.75,567.69 C762.50,567.43 763.32,567.09 767.00,563.50 C770.59,560.00 771.00,559.09 771.00,554.71 L 771.00 549.83 L 759.52 550.16 C748.73,550.48 747.89,550.65 745.46,553.08 C740.96,557.58 742.46,564.47 748.50,567.11 ZM 820.19 729.24 C816.39,731.75 811.11,734.66 812.00,733.77 C812.28,733.49 818.93,728.95 826.78,723.68 C840.96,714.17 861.53,698.32 874.00,687.27 C877.58,684.11 879.64,682.53 878.60,683.76 C877.55,684.99 877.09,686.00 877.58,686.00 C878.07,686.00 884.10,680.49 890.98,673.75 L 903.50 661.50 L 892.50 672.84 C868.60,697.49 835.42,724.61 831.85,722.41 C831.36,722.10 831.07,722.45 831.23,723.18 C831.38,723.90 830.74,724.51 829.82,724.51 C828.90,724.52 827.77,724.93 827.32,725.42 C826.84,725.95 827.09,725.98 827.90,725.51 C828.83,724.97 829.07,725.07 828.62,725.80 C828.24,726.41 827.20,726.63 826.30,726.29 C825.13,725.83 824.90,726.03 825.49,726.98 C826.05,727.89 825.92,728.07 825.10,727.56 C824.41,727.14 822.28,727.87 820.19,729.24 ZM 429.00 724.58 C429.00,725.67 427.03,724.68 422.00,721.09 C418.99,718.94 416.18,717.39 415.76,717.65 C415.34,717.91 415.00,717.75 415.00,717.30 C415.00,716.85 413.76,715.93 412.25,715.26 C404.74,711.90 372.81,684.01 358.45,668.26 L 348.64 657.50 L 359.57 668.14 C365.58,673.99 371.06,678.56 371.75,678.30 C372.44,678.05 373.00,678.35 373.00,678.98 C373.00,679.62 372.46,679.79 371.75,679.37 C370.90,678.86 370.94,679.16 371.87,680.31 C373.36,682.14 374.51,682.63 373.50,681.00 C372.35,679.14 374.68,679.99 376.60,682.13 C382.23,688.42 407.23,708.97 420.75,718.41 C425.29,721.57 429.00,724.35 429.00,724.58 ZM 299.02 562.23 C300.63,566.72 301.81,570.52 301.65,570.69 C301.03,571.30 297.02,563.09 293.15,553.28 C284.35,531.03 277.37,507.48 273.03,485.50 C272.18,481.18 270.88,466.19 271.64,469.50 C271.90,470.60 272.48,472.40 272.93,473.50 C273.39,474.60 274.78,481.12 276.03,488.00 C277.29,494.88 280.04,506.70 282.15,514.27 C284.27,521.85 286.00,528.83 286.00,529.80 C286.00,530.77 286.70,532.56 287.56,533.79 C288.42,535.01 290.18,539.11 291.46,542.88 C292.74,546.66 294.32,550.72 294.95,551.91 C295.58,553.09 297.42,557.74 299.02,562.23 ZM 803.00 98.54 C803.00,99.30 802.48,99.08 800.44,97.44 C798.58,95.95 798.59,95.93 800.75,96.98 C801.99,97.58 803.00,98.28 803.00,98.54 Z" fill="rgb(97,118,78)"/>
<path d="M 685.50 815.91 C668.26,816.65 611.13,816.92 587.00,816.37 C540.35,815.32 491.98,810.45 488.02,806.42 C486.66,805.03 486.74,804.68 488.75,803.03 C491.68,800.62 491.60,798.44 488.50,796.41 C486.66,795.20 486.00,793.89 486.00,791.44 C486.00,789.22 485.32,787.64 483.96,786.68 C482.83,785.90 482.05,784.70 482.21,784.03 C482.56,782.56 482.54,782.55 467.57,775.84 C436.00,761.71 398.20,736.93 372.00,713.19 C349.28,692.61 324.12,665.03 313.00,648.50 C311.15,645.75 309.31,643.27 308.91,643.00 C308.04,642.40 290.00,614.24 290.00,613.48 C290.00,613.20 288.81,611.07 287.35,608.76 C283.47,602.62 272.85,581.06 268.01,569.50 C256.99,543.20 247.74,510.63 242.59,480.00 C238.20,453.87 236.83,412.94 239.45,386.50 C248.05,299.81 283.00,221.51 342.54,155.59 C385.34,108.19 446.51,69.01 509.50,48.65 C560.84,32.06 613.54,26.77 670.00,32.55 C677.97,33.36 686.75,34.47 689.50,35.01 C692.25,35.55 699.45,36.93 705.50,38.09 C736.32,43.97 767.59,54.78 798.63,70.29 C848.83,95.38 888.85,126.80 924.99,169.50 C944.78,192.88 960.41,216.68 975.55,246.50 C996.85,288.47 1007.67,324.62 1015.19,379.00 C1016.94,391.70 1016.96,447.58 1015.21,462.50 C1010.99,498.45 1000.67,538.55 987.79,569.00 C974.72,599.91 955.43,632.65 935.05,658.50 C921.35,675.88 898.92,699.81 884.00,712.97 C858.05,735.88 828.54,755.71 796.60,771.72 C788.29,775.88 781.33,779.72 781.13,780.26 C780.92,780.79 779.94,781.93 778.94,782.79 C777.52,784.00 777.34,784.78 778.15,786.28 C779.74,789.26 778.30,794.34 774.94,797.56 C772.78,799.63 772.06,801.09 772.44,802.62 C773.17,805.53 771.78,806.44 763.00,808.81 C755.69,810.79 743.68,812.36 727.50,813.43 C723.10,813.73 715.90,814.23 711.50,814.55 C707.10,814.88 695.40,815.49 685.50,815.91 ZM 825.91 719.68 C836.70,712.46 847.33,704.54 853.10,699.41 C855.83,696.99 858.39,694.99 858.78,694.99 C860.36,694.95 890.44,665.77 898.28,656.66 C901.15,653.33 905.11,648.79 907.09,646.56 C921.09,630.73 939.65,601.69 952.17,576.00 C960.43,559.05 960.97,557.78 965.46,545.00 C967.49,539.22 969.55,533.75 970.03,532.83 C971.41,530.22 980.77,495.42 982.49,486.50 C988.57,454.91 990.27,408.71 986.46,379.00 C983.66,357.19 981.81,347.30 977.65,332.00 C976.83,328.98 975.18,322.67 973.98,318.00 C972.78,313.33 970.77,307.02 969.51,304.00 C968.24,300.98 965.77,294.23 964.01,289.00 C960.31,278.03 948.16,252.73 940.07,239.16 C937.01,234.02 933.60,228.30 932.50,226.45 C925.32,214.38 908.98,192.97 895.52,178.00 C872.46,152.35 848.41,131.84 820.00,113.58 C803.99,103.29 764.15,83.12 759.55,82.97 C758.97,82.95 756.70,82.06 754.50,81.00 C752.30,79.94 749.93,79.05 749.24,79.03 C748.54,79.02 747.19,78.57 746.24,78.03 C744.33,76.97 727.67,71.69 719.00,69.39 C709.43,66.86 679.87,61.20 670.00,60.01 C655.09,58.21 613.37,57.57 597.99,58.90 C540.53,63.89 484.77,82.59 436.48,113.07 C427.23,118.90 406.97,133.59 399.79,139.67 C377.69,158.37 378.52,157.57 360.29,177.56 C349.83,189.03 333.96,209.48 327.33,220.05 C325.22,223.40 322.52,227.57 321.31,229.32 C313.99,239.97 298.97,269.03 293.57,283.00 C291.55,288.23 289.04,294.52 287.98,297.00 C284.33,305.56 275.22,339.38 273.16,352.00 C269.81,372.50 267.04,403.10 267.02,419.81 C267.00,433.09 268.76,458.62 269.98,462.67 C270.99,466.05 271.19,460.98 270.57,449.43 C271.46,460.04 272.87,470.73 274.77,481.38 C273.95,477.35 273.23,474.23 272.93,473.50 C272.48,472.40 271.90,470.60 271.64,469.50 C270.88,466.19 272.18,481.18 273.03,485.50 C277.37,507.48 284.35,531.03 293.15,553.28 C297.02,563.09 301.03,571.30 301.65,570.69 C301.81,570.52 300.63,566.72 299.02,562.23 C298.35,560.34 297.63,558.42 296.98,556.75 C297.16,557.16 297.34,557.58 297.52,558.00 C299.52,562.67 302.17,569.20 303.40,572.50 C306.17,579.91 314.15,594.75 316.91,597.61 C318.04,598.78 319.85,601.82 320.94,604.35 C322.85,608.83 326.38,614.43 328.58,616.49 C330.39,618.19 337.00,627.95 337.00,628.92 C337.00,629.42 338.35,631.10 340.00,632.66 C341.65,634.22 343.00,635.87 343.00,636.34 C343.00,639.30 370.26,668.23 392.26,688.61 C397.62,693.59 402.18,697.48 402.39,697.27 C402.60,697.07 403.66,698.03 404.75,699.41 C405.84,700.80 406.97,701.70 407.25,701.41 C407.54,701.13 408.66,702.03 409.75,703.41 C410.84,704.80 411.97,705.70 412.25,705.42 C412.53,705.14 414.39,706.44 416.38,708.32 C418.37,710.20 420.00,711.55 420.00,711.32 C420.00,711.09 423.49,713.31 427.75,716.26 C432.01,719.21 438.76,723.56 442.75,725.93 C446.74,728.29 450.00,730.70 450.00,731.28 C450.00,731.86 450.28,732.05 450.62,731.71 C451.52,730.82 459.00,734.82 459.00,736.19 C459.00,736.82 459.28,737.06 459.62,736.72 C459.96,736.38 464.62,738.30 469.99,740.99 C509.19,760.66 554.37,773.51 599.73,777.88 C604.55,778.35 616.83,778.79 627.00,778.85 C702.02,779.36 781.52,752.32 842.62,705.53 C861.74,690.89 883.84,670.31 897.49,654.46 C900.78,650.63 905.73,645.00 908.49,641.95 C908.92,641.47 909.40,640.91 909.92,640.28 C886.47,670.33 859.42,695.48 827.00,717.51 C820.67,721.81 815.05,725.75 814.50,726.28 C812.68,728.03 818.21,724.83 825.91,719.68 ZM 672.00 800.55 C708.37,795.88 744.73,785.85 779.37,770.94 C799.24,762.39 817.07,752.67 837.00,739.52 C863.15,722.27 873.81,713.42 899.51,687.59 C925.18,661.79 943.19,638.79 960.18,610.09 C965.38,601.31 982.43,566.55 984.01,561.50 C984.70,559.30 985.59,557.05 986.00,556.50 C986.41,555.95 988.41,551.01 990.44,545.53 C992.48,540.05 994.77,534.42 995.53,533.03 C997.07,530.23 1002.92,512.03 1005.47,502.14 C1009.43,486.80 1014.12,454.37 1013.88,444.00 C1013.80,440.54 1013.46,441.57 1012.41,448.50 C1011.66,453.45 1010.75,459.42 1010.39,461.77 C1010.03,464.12 1009.28,466.33 1008.72,466.68 C1008.04,467.09 1007.92,465.80 1008.36,462.90 C1009.42,455.89 1009.97,425.76 1009.70,405.63 C1009.98,413.05 1010.37,420.37 1010.64,422.95 C1011.09,427.40 1011.39,428.06 1012.23,426.55 C1013.91,423.56 1012.47,383.80 1010.11,367.85 C1005.91,339.44 1000.58,317.79 991.33,291.51 C975.97,247.91 948.18,201.09 919.50,170.50 L 914.81 165.50 L 918.72 170.50 C948.18,208.17 967.16,240.53 982.97,280.00 C993.34,305.92 1001.27,335.21 1005.70,363.16 C1004.96,358.71 1004.30,355.71 1003.84,355.00 C1002.81,353.41 1002.86,353.95 1005.63,375.00 C1007.77,391.36 1008.51,428.89 1007.06,447.84 C1005.76,464.67 1001.47,492.34 998.02,506.05 C993.07,525.72 982.46,557.73 980.03,560.32 C979.24,561.17 976.79,561.79 973.75,561.92 C972.79,561.97 972.00,562.56 972.00,563.25 C971.99,563.94 970.76,565.85 969.25,567.50 C966.75,570.23 964.81,577.85 966.95,576.53 C968.08,575.83 969.08,578.63 968.36,580.50 C968.05,581.33 966.96,582.00 965.95,582.00 C964.94,582.00 963.83,582.47 963.47,583.05 C963.03,583.76 962.37,583.72 961.39,582.91 C960.21,581.93 960.08,582.04 960.65,583.52 C961.07,584.64 960.95,585.09 960.33,584.70 C959.77,584.36 958.33,585.97 957.12,588.29 C955.91,590.60 954.50,593.17 953.98,594.00 C953.47,594.83 950.26,600.22 946.85,606.00 C921.61,648.77 886.69,686.93 846.14,716.93 C856.08,709.25 873.49,694.21 887.22,681.14 C891.48,677.09 899.13,669.01 904.23,663.18 C911.83,654.49 909.89,656.19 893.50,672.62 C859.74,706.45 829.41,729.02 793.00,747.44 C773.53,757.29 742.40,769.72 733.00,771.40 C731.08,771.74 735.58,769.83 743.00,767.14 C762.07,760.24 763.15,759.81 762.72,759.38 C762.51,759.17 757.34,760.78 751.23,762.96 C729.71,770.64 698.39,778.30 675.01,781.60 C660.11,783.71 617.01,784.53 598.00,783.07 C570.38,780.96 541.36,775.05 514.78,766.13 C499.03,760.84 479.16,753.09 471.65,749.31 C468.98,747.96 466.60,747.06 466.36,747.30 C465.84,747.83 476.67,753.03 490.75,759.00 C496.38,761.39 500.81,763.52 500.60,763.74 C500.06,764.27 480.62,756.22 469.69,750.94 C464.63,748.50 461.37,746.39 462.02,745.99 C462.81,745.50 462.65,745.08 461.53,744.65 C460.58,744.28 460.15,744.43 460.51,745.01 C461.44,746.52 460.39,746.23 454.72,743.39 C438.83,735.43 417.20,720.87 399.56,706.25 C395.41,702.81 391.52,700.00 390.92,700.00 C390.31,700.00 378.88,689.09 365.52,675.75 C341.19,651.46 338.75,650.09 360.77,673.07 C388.96,702.51 422.02,727.53 457.79,746.68 C449.19,742.22 441.27,737.86 436.67,734.95 C432.37,732.23 428.61,730.00 428.32,730.00 C427.41,730.00 411.65,718.77 407.38,715.07 C400.71,709.31 395.19,705.00 394.45,705.00 C393.17,705.00 374.56,688.20 364.34,677.82 C351.18,664.44 335.95,646.88 336.61,645.83 C336.89,645.37 336.65,645.00 336.08,645.00 C334.86,645.00 327.55,635.48 328.11,634.62 C328.33,634.30 327.48,633.32 326.23,632.45 C324.99,631.58 324.20,630.49 324.48,630.04 C324.76,629.58 324.29,628.94 323.43,628.61 C322.57,628.28 322.12,627.61 322.43,627.11 C322.74,626.62 322.29,625.94 321.43,625.61 C320.57,625.28 320.12,624.61 320.43,624.11 C320.74,623.62 320.29,622.94 319.43,622.61 C318.57,622.28 318.12,621.61 318.43,621.11 C318.74,620.62 318.29,619.94 317.43,619.61 C316.57,619.28 316.15,618.56 316.50,618.01 C316.84,617.45 316.69,617.00 316.17,617.00 C315.17,617.00 312.23,612.95 311.77,610.94 C311.62,610.27 310.60,608.70 309.50,607.45 C308.40,606.20 306.38,602.99 305.01,600.33 C303.64,597.68 300.26,591.45 297.50,586.50 C292.60,577.72 291.01,574.36 285.38,561.00 C281.66,552.19 281.34,551.85 277.36,552.59 C274.44,553.14 274.00,552.96 274.00,551.18 C274.00,550.05 273.15,548.87 272.10,548.53 C269.75,547.79 268.71,544.30 268.49,536.50 C268.28,528.95 266.44,523.28 263.96,522.49 C261.53,521.72 259.96,516.49 255.54,494.50 C249.43,464.11 248.51,454.11 248.52,418.50 C248.52,390.86 248.83,384.27 250.77,370.10 C253.00,353.85 253.23,347.04 251.14,359.20 C251.05,359.70 250.97,360.20 250.88,360.69 C251.86,354.36 252.72,350.23 253.28,349.86 C253.82,349.51 253.97,348.75 253.61,348.18 C252.99,347.18 254.35,339.17 255.68,336.00 C256.02,335.17 256.21,333.71 256.09,332.75 C255.97,331.79 256.31,331.00 256.84,331.00 C257.38,331.00 257.58,330.10 257.29,329.00 C257.00,327.90 257.23,327.00 257.79,327.00 C258.35,327.00 258.58,326.10 258.29,325.00 C258.00,323.90 258.26,323.00 258.85,323.00 C259.45,323.00 259.68,322.33 259.36,321.50 C259.05,320.67 259.27,320.00 259.86,320.00 C260.45,320.00 260.70,319.38 260.41,318.62 C259.72,316.82 268.54,290.47 275.04,274.90 C286.43,247.63 299.84,223.23 317.27,198.00 C325.38,186.27 341.36,165.29 343.94,163.00 C344.25,162.73 345.16,161.60 345.96,160.50 C350.28,154.59 339.20,166.40 329.08,178.50 C307.88,203.84 294.73,224.26 279.80,255.00 C254.76,306.55 239.87,372.55 243.58,415.50 L 244.45 425.50 L 245.11 415.50 C245.64,407.47 246.41,398.58 247.29,390.01 C246.72,399.11 246.56,409.68 246.54,425.32 C246.51,451.28 246.24,458.49 245.38,456.32 C242.76,449.68 241.68,411.02 243.30,381.50 L 243.90 370.50 L 242.53 378.50 C240.12,392.60 239.53,430.11 241.42,449.00 C243.80,472.82 248.05,496.40 253.57,516.42 C256.70,527.77 257.38,529.61 262.07,539.57 C264.17,544.01 267.53,552.11 269.54,557.57 C278.93,583.05 299.50,619.80 318.43,644.89 C320.67,647.86 323.37,651.46 324.44,652.89 C335.94,668.38 362.43,695.71 384.02,714.37 C408.90,735.86 453.50,762.50 486.00,775.29 C509.80,784.65 539.31,793.12 563.00,797.37 C571.18,798.84 593.11,801.55 603.50,802.38 C614.94,803.29 660.02,802.08 672.00,800.55 ZM 996.91 435.77 C999.87,385.27 989.27,325.11 969.02,277.50 C964.08,265.87 952.09,241.53 948.19,235.21 C926.50,200.04 903.66,171.81 877.00,147.21 C864.98,136.13 845.78,120.22 841.13,117.50 C839.06,116.29 821.72,105.16 813.68,99.88 C812.16,98.88 810.14,97.68 807.75,96.34 C808.55,96.78 809.35,97.22 810.16,97.66 C820.31,103.29 822.26,104.04 825.31,103.47 C828.29,102.91 828.90,103.12 829.47,104.91 C829.84,106.06 830.58,107.00 831.13,107.00 C831.67,107.00 831.84,107.45 831.50,108.00 C831.16,108.55 831.43,109.00 832.11,109.00 C832.78,109.00 833.05,109.28 832.70,109.63 C831.71,110.62 846.25,120.96 848.67,120.98 C852.00,121.01 854.00,122.06 854.00,123.77 C854.00,124.63 854.30,125.04 854.66,124.68 C855.02,124.31 855.91,124.51 856.65,125.12 C857.38,125.73 858.68,125.95 859.55,125.62 C860.42,125.29 862.55,125.75 864.28,126.64 C867.81,128.47 876.74,137.00 875.11,137.00 C874.54,137.00 873.59,137.91 872.99,139.01 C872.12,140.65 872.25,141.14 873.71,141.61 C874.69,141.92 876.52,142.67 877.77,143.27 C879.45,144.07 880.35,144.05 881.22,143.18 C882.13,142.27 883.18,142.75 885.74,145.24 C888.00,147.42 889.32,148.10 889.80,147.32 C890.62,146.00 898.37,152.84 901.46,157.61 C902.50,159.20 904.17,161.09 905.19,161.82 C906.20,162.54 906.77,163.57 906.44,164.09 C906.12,164.62 906.45,164.93 907.18,164.77 C907.90,164.62 908.39,165.06 908.25,165.75 C908.11,166.44 908.51,166.89 909.12,166.75 C909.74,166.61 914.05,171.23 918.71,177.00 C923.36,182.77 928.74,189.41 930.67,191.75 C933.93,195.70 935.00,196.65 935.00,195.56 C935.00,194.67 919.36,175.14 910.93,165.50 C896.50,149.01 880.49,133.90 857.91,115.45 C850.38,109.29 842.17,103.36 833.42,97.71 C842.59,103.56 851.39,109.76 860.81,116.93 C874.19,127.12 875.11,127.86 880.28,132.56 C883.10,135.13 887.23,138.36 889.46,139.74 C891.68,141.11 899.95,148.71 907.83,156.62 C915.71,164.53 922.39,171.00 922.67,171.00 C922.95,171.00 921.24,168.64 918.87,165.75 C916.49,162.86 907.11,153.04 898.02,143.92 C877.50,123.31 854.77,105.46 829.34,89.95 C820.41,84.51 814.74,81.98 819.44,85.53 C823.41,88.53 819.07,86.75 803.54,78.98 C794.76,74.59 787.11,71.01 786.54,71.02 C785.97,71.03 792.25,74.55 800.50,78.86 C804.49,80.93 808.29,82.97 811.95,84.99 C779.77,67.50 742.52,53.73 705.24,45.98 C623.38,28.96 538.08,39.37 463.24,75.53 C438.41,87.53 416.19,101.21 395.80,117.15 C407.30,108.08 420.89,98.82 434.47,90.83 C441.64,86.61 449.42,81.96 451.78,80.49 C454.13,79.01 458.18,77.02 460.78,76.06 C463.37,75.10 467.08,73.35 469.00,72.16 C476.17,67.74 469.88,70.26 453.12,78.50 C443.61,83.18 435.57,87.00 435.25,87.00 C434.92,87.00 436.76,85.61 439.33,83.91 C445.15,80.05 445.33,79.29 439.75,82.11 C410.54,96.89 369.96,128.78 344.42,157.05 C333.52,169.11 315.26,191.78 312.92,196.16 C310.88,199.96 313.01,197.77 317.96,190.96 C320.77,187.09 326.21,180.63 330.04,176.60 C333.87,172.57 337.00,168.82 337.00,168.26 C337.00,166.94 370.72,134.00 372.08,134.00 C372.65,134.00 372.79,134.56 372.39,135.25 C371.99,135.94 372.64,135.64 373.83,134.59 C375.03,133.54 376.85,132.19 377.88,131.59 C378.49,131.23 380.65,129.56 383.43,127.30 C371.65,137.42 360.49,148.39 349.77,160.33 C340.92,170.19 339.69,173.36 348.23,164.30 C360.66,151.12 364.70,147.15 368.48,144.39 C373.55,140.71 375.89,138.88 377.93,137.00 C378.83,136.18 381.24,134.24 383.28,132.70 C385.33,131.16 387.00,129.32 387.00,128.62 C387.00,127.92 389.23,126.30 391.95,125.03 C394.67,123.75 397.82,121.64 398.95,120.34 C400.46,118.60 401.66,118.13 403.40,118.56 C407.14,119.50 411.82,116.49 413.62,112.00 C414.48,109.84 416.03,107.81 417.07,107.48 C418.10,107.15 419.89,105.56 421.04,103.94 C422.19,102.32 423.59,101.00 424.14,101.00 C424.69,101.00 425.82,100.32 426.64,99.50 C428.34,97.81 431.58,97.51 432.48,98.97 C433.12,100.00 438.81,99.26 440.53,97.92 C441.10,97.48 442.86,96.88 444.45,96.59 C446.04,96.31 447.68,95.52 448.09,94.86 C448.50,94.19 449.58,93.53 450.48,93.40 C451.39,93.27 452.94,92.22 453.93,91.08 C454.92,89.94 456.29,89.00 456.96,89.00 C457.64,89.00 459.39,88.15 460.85,87.11 C462.31,86.08 465.29,84.99 467.47,84.69 C469.66,84.40 471.61,83.67 471.81,83.08 C472.00,82.49 473.06,82.00 474.14,82.00 C475.23,82.00 475.84,81.55 475.50,81.00 C475.16,80.45 475.75,80.00 476.82,80.00 C478.86,80.00 484.78,77.86 489.00,75.60 C490.38,74.86 493.30,73.94 495.50,73.55 C497.70,73.15 504.00,71.27 509.50,69.36 C534.43,60.71 560.00,55.02 586.74,52.21 C522.81,59.59 465.96,81.57 412.60,119.44 C356.16,159.51 310.47,217.98 284.59,283.26 C266.41,329.09 258.84,369.11 259.18,417.50 L 259.35 440.50 L 260.05 415.50 C260.71,392.17 261.66,380.17 264.02,365.50 C264.55,362.20 265.03,359.05 265.09,358.50 C265.15,357.95 265.52,358.62 265.90,360.00 C266.45,361.94 267.00,360.50 268.38,353.50 C282.78,280.30 318.01,214.11 370.65,161.38 C389.71,142.29 406.44,128.69 430.73,112.55 C436.36,108.81 440.72,105.36 440.43,104.89 C440.14,104.41 440.55,104.27 441.35,104.58 C442.14,104.89 443.14,104.59 443.55,103.91 C444.04,103.13 443.89,102.95 443.15,103.40 C442.52,103.80 442.00,103.89 442.00,103.60 C442.00,102.76 454.83,95.53 467.58,89.18 C506.72,69.70 552.00,56.85 595.00,53.03 C609.82,51.71 645.24,51.71 660.00,53.04 C699.29,56.55 744.88,68.75 779.77,85.08 C792.29,90.94 813.69,102.69 814.64,104.22 C815.04,104.87 814.84,105.02 814.15,104.60 C813.52,104.20 813.00,104.07 813.00,104.30 C813.00,104.54 818.06,108.04 824.25,112.09 C879.69,148.40 925.02,198.83 953.59,256.00 C971.40,291.64 980.87,321.34 989.49,368.50 L 990.95 376.50 L 990.55 369.50 C989.94,358.91 991.58,364.66 993.59,380.14 C995.44,394.39 996.08,431.38 994.85,453.00 C994.38,461.12 994.45,462.74 995.06,458.50 C995.54,455.20 996.37,444.97 996.91,435.77 ZM 982.40 367.20 C982.22,366.59 982.04,366.11 981.85,365.76 C980.84,363.83 979.33,357.27 978.00,349.08 C977.52,346.10 976.15,342.34 974.96,340.73 C973.41,338.64 972.96,336.97 973.37,334.90 C973.69,333.30 973.62,331.99 973.22,331.99 C971.68,331.96 963.02,308.04 961.44,299.46 C961.04,297.28 959.44,293.88 957.89,291.89 C956.33,289.90 953.73,284.73 952.11,280.39 C949.19,272.58 940.76,256.11 939.13,255.05 C938.66,254.75 937.30,252.48 936.10,250.00 C932.66,242.90 927.82,234.84 923.78,229.46 C916.17,219.31 914.15,216.40 912.00,212.50 C910.78,210.30 907.25,205.75 904.14,202.39 C901.04,199.03 896.47,193.73 894.00,190.62 C891.53,187.51 888.91,184.41 888.19,183.73 C887.46,183.05 880.18,175.90 872.01,167.84 C863.83,159.77 854.33,151.26 850.88,148.92 C847.44,146.58 842.05,142.38 838.92,139.58 C832.30,133.69 830.04,132.16 816.50,124.40 C811.00,121.25 802.22,116.11 797.00,112.97 C791.78,109.83 785.03,106.26 782.00,105.03 C778.97,103.80 773.49,101.47 769.82,99.85 C763.67,97.14 752.31,92.86 742.50,89.55 C738.94,88.35 724.63,84.31 710.50,80.51 C674.72,70.91 619.08,68.11 581.50,74.02 C546.74,79.49 512.18,89.06 489.50,99.50 C480.21,103.77 453.96,116.79 450.12,119.03 C426.87,132.58 413.52,142.26 393.16,160.31 C378.04,173.72 368.41,183.36 361.00,192.51 C357.98,196.25 353.48,201.63 351.00,204.46 C343.87,212.63 338.86,219.86 319.45,250.02 C314.48,257.76 311.08,264.25 307.58,272.71 C306.16,276.13 303.26,282.43 301.11,286.71 C298.97,291.00 296.43,296.98 295.47,300.00 C294.51,303.02 291.98,309.19 289.86,313.69 C287.74,318.20 286.00,322.72 286.00,323.75 C286.00,324.78 285.34,326.49 284.53,327.56 C283.72,328.63 283.05,330.96 283.03,332.74 C282.99,336.88 281.19,344.65 279.37,348.50 C278.59,350.15 277.58,353.91 277.11,356.86 C276.64,359.81 275.81,362.51 275.26,362.86 C273.71,363.85 271.18,383.48 269.93,404.35 C269.81,406.23 269.72,408.12 269.64,410.02 C270.02,399.94 270.82,388.85 272.03,377.00 C275.86,339.64 289.25,296.54 308.84,258.50 C351.72,175.26 424.24,112.04 511.68,81.68 C592.44,53.63 678.14,55.62 760.00,87.45 C772.94,92.48 800.13,106.22 813.50,114.48 C849.34,136.62 879.33,163.17 906.33,196.62 C946.50,246.40 971.80,303.14 982.40,367.20 ZM 654.00 812.80 C669.12,812.33 685.54,811.46 690.47,810.87 C701.22,809.59 708.55,807.08 708.37,804.76 C708.22,802.82 710.73,801.76 722.00,798.97 C734.18,795.96 753.33,789.75 765.24,784.95 C777.41,780.05 784.00,777.10 784.00,776.56 C784.00,775.97 776.66,778.08 775.50,779.00 C773.56,780.54 741.06,790.94 725.88,794.89 C689.78,804.28 670.67,806.50 626.50,806.48 C596.03,806.47 590.94,806.23 577.50,804.16 C541.80,798.67 515.69,792.03 483.50,780.25 C467.89,774.54 467.87,774.54 474.50,778.06 C480.97,781.49 501.77,789.60 511.50,792.48 C514.80,793.46 519.51,794.91 521.97,795.69 C524.43,796.48 530.67,798.20 535.83,799.51 C545.25,801.90 546.39,802.38 546.62,804.08 C546.69,804.59 546.81,805.38 546.88,805.84 C547.34,808.96 567.31,811.78 596.24,812.81 C622.90,813.76 623.15,813.76 654.00,812.80 ZM 790.80 71.95 C791.73,72.49 792.95,72.92 793.50,72.90 C794.51,72.85 776.14,63.70 765.36,58.88 C751.11,52.51 724.66,44.56 702.60,40.02 C675.91,34.53 664.40,33.53 628.00,33.53 C590.51,33.54 586.10,33.91 556.00,39.60 C531.96,44.14 506.76,51.53 491.35,58.56 C489.62,59.35 487.95,60.00 487.65,60.00 C486.37,60.00 465.78,70.12 466.20,70.54 C466.46,70.79 471.13,69.17 476.58,66.93 C499.48,57.54 526.14,49.38 549.80,44.52 C579.68,38.38 601.17,36.58 636.00,37.29 C675.36,38.10 701.14,41.98 737.50,52.59 C754.90,57.67 785.16,68.66 790.80,71.95 ZM 894.02 669.27 C894.01,669.69 896.96,666.90 900.58,663.06 C947.06,613.79 979.97,546.70 990.62,479.50 C991.58,473.45 992.62,468.27 992.93,468.00 C993.57,467.44 993.63,466.04 994.30,436.50 C994.57,424.95 994.60,417.98 994.38,421.00 C990.71,470.49 985.74,497.70 973.88,533.26 C958.33,579.86 935.47,620.01 902.58,658.50 C897.88,664.00 894.03,668.85 894.02,669.27 ZM 349.94 656.77 C352.94,660.20 355.56,663.00 355.78,663.00 C356.27,663.00 354.02,660.09 346.50,651.02 C340.50,643.79 336.34,638.11 326.66,623.96 C320.74,615.31 320.36,614.71 315.27,606.14 C284.24,553.84 267.62,499.60 263.04,435.66 C262.48,427.87 261.95,417.23 261.86,412.00 L 261.70 402.50 L 260.92 410.50 C259.23,427.78 262.68,470.08 267.59,492.50 C275.18,527.11 283.54,551.19 297.92,579.89 C310.88,605.77 327.28,631.17 340.92,646.52 C342.89,648.73 346.95,653.35 349.94,656.77 ZM 820.19 729.24 C822.28,727.87 824.41,727.14 825.10,727.56 C825.92,728.07 826.05,727.89 825.49,726.98 C824.90,726.03 825.13,725.83 826.30,726.29 C827.20,726.63 828.24,726.41 828.62,725.80 C829.07,725.07 828.83,724.97 827.90,725.51 C827.09,725.98 826.84,725.95 827.32,725.42 C827.77,724.93 828.90,724.52 829.82,724.51 C830.74,724.51 831.38,723.90 831.23,723.18 C831.07,722.45 831.36,722.10 831.85,722.41 C835.42,724.61 868.60,697.49 892.50,672.84 L 903.50 661.50 L 890.98 673.75 C884.10,680.49 878.07,686.00 877.58,686.00 C877.09,686.00 877.55,684.99 878.60,683.76 C879.64,682.53 877.58,684.11 874.00,687.27 C861.53,698.32 840.96,714.17 826.78,723.68 C818.93,728.95 812.28,733.49 812.00,733.77 C811.11,734.66 816.39,731.75 820.19,729.24 ZM 429.00 724.58 C429.00,724.35 425.29,721.57 420.75,718.41 C407.23,708.97 382.23,688.42 376.60,682.13 C374.68,679.99 372.35,679.14 373.50,681.00 C374.51,682.63 373.36,682.14 371.87,680.31 C370.94,679.16 370.90,678.86 371.75,679.37 C372.46,679.79 373.00,679.62 373.00,678.98 C373.00,678.35 372.44,678.05 371.75,678.30 C371.06,678.56 365.58,673.99 359.57,668.14 L 348.64 657.50 L 358.45 668.26 C372.81,684.01 404.74,711.90 412.25,715.26 C413.76,715.93 415.00,716.85 415.00,717.30 C415.00,717.75 415.34,717.91 415.76,717.65 C416.18,717.39 418.99,718.94 422.00,721.09 C427.03,724.68 429.00,725.67 429.00,724.58 ZM 628.80 352.69 C628.02,355.02 627.40,357.11 626.99,358.79 C626.14,362.28 626.20,362.30 632.00,360.18 C634.87,359.12 631.13,362.70 628.01,364.00 C626.24,364.73 624.48,367.07 623.62,369.36 C624.37,365.42 625.97,359.68 627.48,356.00 C627.86,355.08 628.32,353.94 628.80,352.69 ZM 600.83 366.38 C611.12,332.82 611.12,332.64 608.69,331.71 C607.98,331.44 601.11,333.26 593.44,335.76 C590.85,336.61 588.05,337.50 585.34,338.35 C593.02,335.85 601.09,333.04 603.83,331.81 C611.97,328.17 612.28,328.88 608.29,342.00 C605.23,352.02 602.77,360.08 600.83,366.38 ZM 571.62 408.88 C576.92,407.31 582.44,405.43 584.90,404.35 C587.88,403.04 590.50,402.17 590.74,402.40 C590.97,402.64 590.26,406.13 589.16,410.17 C588.47,412.67 587.81,415.26 587.17,417.88 C586.44,421.66 585.52,426.13 584.56,430.50 C583.63,434.73 582.82,439.03 582.14,443.16 C580.52,453.50 579.68,462.52 580.01,467.65 C579.68,462.46 580.49,453.27 582.14,443.16 C583.40,435.13 585.14,426.30 587.17,417.88 C588.01,413.57 588.61,410.14 588.74,408.75 C589.26,403.33 588.59,402.99 582.27,405.49 C580.63,406.14 576.25,407.53 571.62,408.88 ZM 290.42 540.01 C289.35,537.22 288.20,534.70 287.56,533.79 C286.70,532.56 286.00,530.77 286.00,529.80 C286.00,528.83 284.27,521.85 282.15,514.27 C280.28,507.57 277.91,497.53 276.52,490.54 C279.97,507.35 284.63,523.99 290.42,540.01 ZM 542.50 404.98 C520.95,411.25 501.76,414.93 489.05,414.98 C499.92,414.94 524.38,410.68 527.08,408.36 C527.95,407.61 530.52,407.00 532.81,407.00 C534.41,407.00 537.86,406.26 542.50,404.98 ZM 943.50 589.44 C954.02,569.79 964.77,545.46 967.02,535.41 C967.61,532.76 968.47,530.11 968.92,529.54 C969.40,528.92 970.08,527.34 970.87,525.06 C963.91,547.51 954.84,568.81 943.50,589.44 ZM 822.18 733.28 C815.66,737.37 809.03,741.26 802.29,744.93 C802.78,744.59 803.19,744.28 803.50,744.00 C804.60,743.02 809.45,740.14 814.28,737.61 C817.49,735.93 820.01,734.56 822.18,733.28 ZM 840.76 720.83 C836.24,724.06 831.64,727.19 826.99,730.21 C829.05,728.78 831.04,727.23 833.43,725.25 C835.59,723.46 837.84,722.00 838.44,722.00 C838.80,722.00 839.60,721.59 840.76,720.83 ZM 636.40 789.38 C648.61,788.99 661.75,788.29 668.03,787.54 C670.73,787.21 673.40,786.86 676.05,786.49 C671.91,787.10 667.72,787.65 663.50,788.14 C657.21,788.88 647.25,789.29 636.40,789.38 ZM 484.11 759.47 C484.93,759.83 485.76,760.19 486.59,760.54 C519.30,774.61 560.86,785.13 595.00,787.98 C597.86,788.22 600.77,788.47 603.34,788.70 C598.49,788.44 594.10,788.10 590.50,787.70 C555.15,783.74 517.91,774.00 486.50,760.51 C485.74,760.19 484.94,759.84 484.11,759.47 ZM 984.13 465.20 C986.04,451.24 986.49,440.86 986.45,421.50 C986.42,408.77 985.82,395.43 984.91,384.92 C986.84,403.37 987.06,441.94 985.21,457.00 C984.88,459.75 984.51,462.49 984.13,465.20 ZM 797.94 91.09 C787.47,85.71 774.89,79.80 766.50,76.50 C753.80,71.49 740.74,67.12 727.48,63.44 C753.00,70.40 773.91,78.59 797.94,91.09 ZM 623.16 372.98 C623.18,373.03 623.20,373.09 623.21,373.14 C623.45,373.86 631.04,370.40 640.38,365.61 C631.29,370.36 623.70,374.04 623.32,373.66 C623.22,373.56 623.17,373.32 623.16,372.98 ZM 803.00 98.54 C803.00,98.28 801.99,97.58 800.75,96.98 C798.59,95.93 798.58,95.95 800.44,97.44 C802.48,99.08 803.00,99.30 803.00,98.54 ZM 777.53 757.21 C775.35,758.18 773.17,759.14 770.98,760.06 C758.52,765.35 745.92,769.92 733.08,773.82 C735.93,772.95 738.80,772.03 741.70,771.08 C752.51,767.51 765.91,762.25 777.53,757.21 ZM 708.70 58.72 C698.79,56.48 688.81,54.63 678.83,53.19 C688.55,54.47 698.05,56.26 708.70,58.72 ZM 295.08 552.16 C295.03,552.06 294.99,551.98 294.95,551.91 C294.32,550.72 292.74,546.66 291.46,542.88 C291.41,542.74 291.36,542.60 291.31,542.46 C292.52,545.72 293.78,548.95 295.08,552.16 ZM 639.38 326.67 C637.28,330.98 634.73,336.90 632.45,342.70 C634.26,337.72 637.05,331.35 639.38,326.67 ZM 532.91 417.23 C517.99,419.23 504.43,419.48 493.29,417.88 C504.37,419.47 518.01,419.21 532.91,417.23 C543.60,415.79 555.00,413.46 566.72,410.27 C555.13,413.46 543.69,415.79 532.91,417.23 ZM 564.80 344.23 C558.44,345.87 551.73,347.53 545.69,348.97 C547.31,348.58 548.93,348.18 550.50,347.79 C555.67,346.49 560.91,345.19 564.80,344.23 ZM 638.92 50.34 C633.04,50.22 627.02,50.17 621.36,50.20 C626.64,50.13 631.96,50.16 637.34,50.30 C637.87,50.31 638.40,50.32 638.92,50.34 ZM 269.43 417.53 C269.35,423.20 269.42,428.93 269.65,434.69 C269.40,429.47 269.32,423.72 269.43,417.53 ZM 643.14 320.32 C643.15,320.32 643.15,320.31 643.16,320.30 C644.68,319.07 655.04,315.39 668.87,310.94 C655.03,315.39 644.66,319.08 643.14,320.32 ZM 597.31 377.69 C596.06,381.66 595.32,383.90 595.01,384.65 C595.28,383.98 596.16,381.32 597.31,377.69 ZM 566.72 410.27 C567.13,410.16 567.55,410.05 567.96,409.93 C569.17,409.59 570.40,409.24 571.62,408.88 C570.52,409.21 569.44,409.52 568.39,409.82 C567.83,409.97 567.28,410.12 566.72,410.27 Z" fill="rgb(184,187,181)"/>
<path d="M 0.00 418.00 L 0.00 0.00 L 627.50 0.00 L 1255.00 0.00 L 1255.00 418.00 L 1255.00 836.00 L 627.50 836.00 L 0.00 836.00 L 0.00 418.00 ZM 685.50 815.91 C695.40,815.49 707.10,814.88 711.50,814.55 C715.90,814.23 723.10,813.73 727.50,813.43 C743.68,812.36 755.69,810.79 763.00,808.81 C771.78,806.44 773.17,805.53 772.44,802.62 C772.06,801.09 772.78,799.63 774.94,797.56 C778.30,794.34 779.74,789.26 778.15,786.28 C777.34,784.78 777.52,784.00 778.94,782.79 C779.94,781.93 780.92,780.79 781.13,780.26 C781.33,779.72 788.29,775.88 796.60,771.72 C828.54,755.71 858.05,735.88 884.00,712.97 C898.92,699.81 921.35,675.88 935.05,658.50 C955.43,632.65 974.72,599.91 987.79,569.00 C1000.67,538.55 1010.99,498.45 1015.21,462.50 C1016.96,447.58 1016.94,391.70 1015.19,379.00 C1007.67,324.62 996.85,288.47 975.55,246.50 C960.41,216.68 944.78,192.88 924.99,169.50 C888.85,126.80 848.83,95.38 798.63,70.29 C767.59,54.78 736.32,43.97 705.50,38.09 C699.45,36.93 692.25,35.55 689.50,35.01 C686.75,34.47 677.97,33.36 670.00,32.55 C613.54,26.77 560.84,32.06 509.50,48.65 C446.51,69.01 385.34,108.19 342.54,155.59 C283.00,221.51 248.05,299.81 239.45,386.50 C236.83,412.94 238.20,453.87 242.59,480.00 C247.74,510.63 256.99,543.20 268.01,569.50 C272.85,581.06 283.47,602.62 287.35,608.76 C288.81,611.07 290.00,613.20 290.00,613.48 C290.00,614.24 308.04,642.40 308.91,643.00 C309.31,643.27 311.15,645.75 313.00,648.50 C324.12,665.03 349.28,692.61 372.00,713.19 C398.20,736.93 436.00,761.71 467.57,775.84 C482.54,782.55 482.56,782.56 482.21,784.03 C482.05,784.70 482.83,785.90 483.96,786.68 C485.32,787.64 486.00,789.22 486.00,791.44 C486.00,793.89 486.66,795.20 488.50,796.41 C491.60,798.44 491.68,800.62 488.75,803.03 C486.74,804.68 486.66,805.03 488.02,806.42 C491.98,810.45 540.35,815.32 587.00,816.37 C611.13,816.92 668.26,816.65 685.50,815.91 ZM 611.00 789.43 C609.08,789.20 601.88,788.55 595.00,787.98 C560.86,785.13 519.30,774.61 486.59,760.54 C439.76,740.41 396.39,710.26 360.77,673.07 C338.75,650.09 341.19,651.46 365.52,675.75 C378.88,689.09 390.31,700.00 390.92,700.00 C391.52,700.00 395.41,702.81 399.56,706.25 C417.20,720.87 438.83,735.43 454.72,743.39 C460.39,746.23 461.44,746.52 460.51,745.01 C460.15,744.43 460.58,744.28 461.53,744.65 C462.65,745.08 462.81,745.50 462.02,745.99 C461.37,746.39 464.63,748.50 469.69,750.94 C480.62,756.22 500.06,764.27 500.60,763.74 C500.81,763.52 496.38,761.39 490.75,759.00 C476.67,753.03 465.84,747.83 466.36,747.30 C466.60,747.06 468.98,747.96 471.65,749.31 C479.16,753.09 499.03,760.84 514.78,766.13 C541.36,775.05 570.38,780.96 598.00,783.07 C617.01,784.53 660.11,783.71 675.01,781.60 C698.39,778.30 729.71,770.64 751.23,762.96 C757.34,760.78 762.51,759.17 762.72,759.38 C763.15,759.81 762.07,760.24 743.00,767.14 C735.58,769.83 731.08,771.74 733.00,771.40 C742.40,769.72 773.53,757.29 793.00,747.44 C829.41,729.02 859.74,706.45 893.50,672.62 C909.89,656.19 911.83,654.49 904.23,663.18 C899.13,669.01 891.48,677.09 887.22,681.14 C867.83,699.60 841.09,722.00 838.44,722.00 C837.84,722.00 835.59,723.46 833.43,725.25 C827.13,730.46 823.62,732.72 814.28,737.61 C809.45,740.14 804.60,743.02 803.50,744.00 C798.14,748.79 764.27,763.63 741.70,771.08 C716.79,779.29 693.71,784.45 668.03,787.54 C655.89,789.00 618.11,790.25 611.00,789.43 ZM 599.73 777.88 C554.37,773.51 509.19,760.66 469.99,740.99 C464.62,738.30 459.96,736.38 459.62,736.72 C459.28,737.06 459.00,736.82 459.00,736.19 C459.00,734.82 451.52,730.82 450.62,731.71 C450.28,732.05 450.00,731.86 450.00,731.28 C450.00,730.70 446.74,728.29 442.75,725.93 C438.76,723.56 432.01,719.21 427.75,716.26 C423.49,713.31 420.00,711.09 420.00,711.32 C420.00,711.55 418.37,710.20 416.38,708.32 C414.39,706.44 412.53,705.14 412.25,705.42 C411.97,705.70 410.84,704.80 409.75,703.41 C408.66,702.03 407.54,701.13 407.25,701.41 C406.97,701.70 405.84,700.80 404.75,699.41 C403.66,698.03 402.60,697.07 402.39,697.27 C402.18,697.48 397.62,693.59 392.26,688.61 C370.26,668.23 343.00,639.30 343.00,636.34 C343.00,635.87 341.65,634.22 340.00,632.66 C338.35,631.10 337.00,629.42 337.00,628.92 C337.00,627.95 330.39,618.19 328.58,616.49 C326.38,614.43 322.85,608.83 320.94,604.35 C319.85,601.82 318.04,598.78 316.91,597.61 C314.15,594.75 306.17,579.91 303.40,572.50 C302.17,569.20 299.52,562.67 297.52,558.00 C276.89,509.91 266.91,454.33 269.93,404.35 C271.18,383.48 273.71,363.85 275.26,362.86 C275.81,362.51 276.64,359.81 277.11,356.86 C277.58,353.91 278.59,350.15 279.37,348.50 C281.19,344.65 282.99,336.88 283.03,332.74 C283.05,330.96 283.72,328.63 284.53,327.56 C285.34,326.49 286.00,324.78 286.00,323.75 C286.00,322.72 287.74,318.20 289.86,313.69 C291.98,309.19 294.51,303.02 295.47,300.00 C296.43,296.98 298.97,291.00 301.11,286.71 C303.26,282.43 306.16,276.13 307.58,272.71 C311.08,264.25 314.48,257.76 319.45,250.02 C338.86,219.86 343.87,212.63 351.00,204.46 C353.48,201.63 357.98,196.25 361.00,192.51 C368.41,183.36 378.04,173.72 393.16,160.31 C413.52,142.26 426.87,132.58 450.12,119.03 C453.96,116.79 480.21,103.77 489.50,99.50 C512.18,89.06 546.74,79.49 581.50,74.02 C619.08,68.11 674.72,70.91 710.50,80.51 C724.63,84.31 738.94,88.35 742.50,89.55 C752.31,92.86 763.67,97.14 769.82,99.85 C773.49,101.47 778.97,103.80 782.00,105.03 C785.03,106.26 791.78,109.83 797.00,112.97 C802.22,116.11 811.00,121.25 816.50,124.40 C830.04,132.16 832.30,133.69 838.92,139.58 C842.05,142.38 847.44,146.58 850.88,148.92 C854.33,151.26 863.83,159.77 872.01,167.84 C880.18,175.90 887.46,183.05 888.19,183.73 C888.91,184.41 891.53,187.51 894.00,190.62 C896.47,193.73 901.04,199.03 904.14,202.39 C907.25,205.75 910.78,210.30 912.00,212.50 C914.15,216.40 916.17,219.31 923.78,229.46 C927.82,234.84 932.66,242.90 936.10,250.00 C937.30,252.48 938.66,254.75 939.13,255.05 C940.76,256.11 949.19,272.58 952.11,280.39 C953.73,284.73 956.33,289.90 957.89,291.89 C959.44,293.88 961.04,297.28 961.44,299.46 C963.02,308.04 971.68,331.96 973.22,331.99 C973.62,331.99 973.69,333.30 973.37,334.90 C972.96,336.97 973.41,338.64 974.96,340.73 C976.15,342.34 977.52,346.10 978.00,349.08 C979.33,357.27 980.84,363.83 981.85,365.76 C984.19,370.23 986.40,397.00 986.45,421.50 C986.50,446.82 985.72,456.79 981.91,479.50 C978.86,497.71 971.42,526.34 968.92,529.54 C968.47,530.11 967.61,532.76 967.02,535.41 C964.26,547.74 948.69,581.60 936.46,601.90 C928.22,615.56 914.25,635.57 908.49,641.95 C905.73,645.00 900.78,650.63 897.49,654.46 C883.84,670.31 861.74,690.89 842.62,705.53 C781.52,752.32 702.02,779.36 627.00,778.85 C616.83,778.79 604.55,778.35 599.73,777.88 ZM 402.82 575.95 C409.94,573.49 411.50,571.27 410.39,565.13 C409.47,560.03 409.42,560.00 405.38,562.06 C399.70,564.96 391.27,566.29 381.98,565.76 C368.57,565.00 361.16,560.30 355.86,549.22 C348.85,534.51 353.33,515.77 365.85,507.48 C370.64,504.31 378.31,502.02 384.19,502.01 C389.70,502.00 401.12,504.49 405.20,506.60 C406.77,507.42 408.44,507.85 408.90,507.56 C409.37,507.27 409.69,504.47 409.62,501.34 L 409.50 495.64 L 404.19 493.80 C384.88,487.12 363.83,490.59 351.02,502.58 C333.87,518.62 334.00,550.97 351.28,566.59 C356.95,571.71 366.15,576.51 373.11,577.98 C380.20,579.49 395.64,578.43 402.82,575.95 ZM 462.78 576.02 C485.38,566.22 487.29,531.34 465.88,519.48 C460.81,516.67 459.86,516.50 449.50,516.52 C439.55,516.54 438.01,516.80 433.41,519.21 C427.47,522.32 422.57,527.55 419.61,533.95 C416.72,540.19 416.75,553.50 419.67,560.00 C423.37,568.26 429.84,573.93 439.84,577.67 C445.11,579.64 456.28,578.83 462.78,576.02 ZM 528.50 576.65 C531.25,575.37 534.12,573.57 534.87,572.66 C536.85,570.27 537.96,570.60 539.11,573.90 C539.91,576.18 540.84,576.88 543.51,577.19 C545.37,577.41 547.81,577.24 548.94,576.82 C550.97,576.07 551.00,575.53 551.00,534.03 L 551.00 492.00 L 544.50 492.00 L 538.00 492.00 L 538.00 506.50 C538.00,514.47 537.66,521.00 537.25,521.00 C536.84,520.99 534.29,519.87 531.58,518.50 C527.67,516.51 525.21,516.01 519.58,516.04 C507.63,516.12 499.61,520.31 494.33,529.23 C488.68,538.77 487.90,551.64 492.32,562.23 C497.90,575.57 515.65,582.64 528.50,576.65 ZM 609.50 576.22 L 617.50 573.50 L 617.80 567.75 C617.96,564.59 617.83,562.00 617.51,562.00 C617.19,562.00 615.24,562.86 613.19,563.91 C608.00,566.55 597.94,568.37 592.80,567.59 C586.58,566.65 580.89,563.08 578.29,558.48 C573.93,550.79 573.21,551.07 598.25,550.77 L 620.50 550.50 L 620.81 544.50 C621.36,533.68 617.20,524.81 609.04,519.41 C603.70,515.87 591.19,514.93 582.62,517.42 C568.44,521.54 560.38,536.13 563.05,552.83 C564.38,561.16 566.85,565.82 572.61,570.89 C581.88,579.04 595.43,581.00 609.50,576.22 ZM 760.82 576.99 C763.20,575.92 766.40,574.14 767.94,573.05 C770.92,570.92 772.00,571.22 772.00,574.19 C772.00,576.68 776.46,578.27 781.21,577.47 L 785.00 576.82 L 785.00 557.46 C785.00,532.59 784.26,528.95 777.95,522.80 C771.82,516.84 767.59,515.65 754.51,516.24 C747.34,516.55 743.20,517.26 739.94,518.72 L 735.38 520.77 L 735.94 525.63 C736.25,528.31 736.84,530.40 737.26,530.28 C747.76,527.17 749.93,526.83 757.57,527.15 C764.45,527.44 766.32,527.87 768.04,529.60 C770.44,531.99 772.31,538.69 770.83,539.60 C770.31,539.93 764.17,540.26 757.19,540.35 C745.02,540.49 744.28,540.63 739.00,543.57 C731.56,547.73 728.65,553.07 729.34,561.29 C729.95,568.63 733.33,573.31 740.38,576.60 C746.82,579.60 754.75,579.75 760.82,576.99 ZM 838.85 577.55 C846.62,575.48 848.22,573.71 847.41,568.06 C847.04,565.55 846.65,563.38 846.53,563.24 C846.41,563.09 844.62,563.68 842.57,564.54 C836.09,567.24 828.52,568.22 823.78,566.95 C817.86,565.38 810.47,557.71 809.53,552.20 C807.86,542.31 812.39,532.54 820.31,528.95 C825.53,526.58 834.02,526.45 840.43,528.63 C845.85,530.48 846.38,530.14 847.51,524.11 C848.01,521.41 847.77,520.30 846.45,519.34 C843.52,517.19 833.93,515.75 825.53,516.19 C816.04,516.69 808.89,519.98 803.45,526.33 C797.76,532.98 796.00,537.92 796.01,547.24 C796.02,556.33 798.16,562.50 803.48,568.80 C810.51,577.13 826.01,580.97 838.85,577.55 ZM 655.88 577.38 L 659.00 576.75 L 659.00 539.90 L 659.00 503.06 L 672.25 502.78 L 685.50 502.50 L 685.80 497.40 L 686.09 492.31 L 655.80 491.60 C639.13,491.21 623.59,491.20 621.25,491.57 L 617.00 492.26 L 617.00 497.63 L 617.00 503.00 L 631.00 503.00 L 645.00 503.00 L 645.00 539.83 C645.00,560.09 645.30,576.97 645.67,577.33 C646.51,578.17 651.78,578.19 655.88,577.38 ZM 698.39 576.42 C698.73,575.55 699.00,566.19 699.00,555.61 L 699.00 536.39 L 702.25 533.32 C704.04,531.62 706.48,529.74 707.68,529.12 C710.43,527.71 718.50,527.66 721.08,529.04 C723.23,530.19 724.25,528.51 725.53,521.71 C726.15,518.37 726.02,518.16 722.47,516.99 C716.84,515.13 709.77,516.22 703.93,519.85 C701.14,521.58 698.65,523.00 698.38,523.00 C698.11,523.00 697.43,521.65 696.85,520.00 C695.86,517.17 695.51,517.00 690.40,517.00 L 685.00 517.00 L 685.00 546.83 C685.00,563.24 685.30,576.97 685.67,577.33 C686.03,577.70 688.91,578.00 692.06,578.00 C696.36,578.00 697.94,577.61 698.39,576.42 ZM 871.78 566.81 C872.06,556.27 872.11,556.09 875.11,553.56 C876.78,552.15 878.78,551.00 879.55,551.00 C880.90,551.00 884.62,555.51 894.27,568.89 C896.90,572.52 899.80,576.06 900.72,576.75 C902.62,578.18 915.59,578.48 916.43,577.11 C916.96,576.25 906.45,562.38 895.29,549.22 C891.10,544.27 890.17,542.57 890.92,541.22 C891.44,540.27 896.62,534.78 902.43,529.02 C908.24,523.25 913.00,518.19 913.00,517.77 C913.00,517.35 909.76,517.00 905.80,517.00 L 898.60 517.00 L 886.36 529.10 C879.63,535.75 873.65,540.90 873.06,540.54 C872.36,540.10 872.00,531.61 872.00,515.44 L 872.00 491.00 L 865.50 491.00 L 859.00 491.00 L 859.00 533.92 C859.00,567.30 859.28,576.95 860.25,577.36 C860.94,577.65 863.75,577.80 866.50,577.69 L 871.50 577.50 L 871.78 566.81 ZM 583.42 472.39 C587.58,470.79 602.09,438.31 609.95,413.00 C616.98,390.35 614.96,393.30 628.07,386.50 C655.80,372.12 680.66,354.35 694.54,339.00 C700.89,331.98 704.43,327.00 703.07,327.00 C702.49,327.00 696.72,330.74 690.25,335.32 C683.79,339.90 673.62,346.69 667.65,350.42 C652.94,359.60 623.69,374.56 623.21,373.14 C622.34,370.53 625.15,365.18 628.01,364.00 C631.13,362.70 634.87,359.12 632.00,360.18 C626.20,362.30 626.14,362.28 626.99,358.79 C629.50,348.41 640.35,322.59 643.16,320.30 C646.66,317.45 697.44,301.51 729.00,293.35 C756.04,286.36 791.18,279.05 807.50,277.01 C819.74,275.48 837.30,272.07 838.38,271.00 C838.89,270.51 836.74,269.40 833.38,268.42 C826.00,266.27 798.00,265.97 781.00,267.85 C745.01,271.83 704.92,280.66 660.50,294.39 C648.52,298.09 647.57,297.87 650.03,291.92 C651.72,287.85 649.99,286.00 644.50,286.00 C636.17,286.00 628.88,291.24 619.44,304.01 C615.94,308.75 614.61,309.74 609.75,311.22 C600.84,313.94 565.21,327.42 557.50,330.99 C536.16,340.87 515.54,352.44 516.50,354.01 C516.78,354.45 517.79,354.65 518.75,354.46 C519.71,354.27 523.65,353.59 527.50,352.96 C534.01,351.89 556.26,346.57 572.50,342.20 C576.35,341.16 585.77,338.27 593.44,335.76 C601.11,333.26 607.98,331.44 608.69,331.71 C611.16,332.66 611.12,332.83 600.33,368.00 C597.89,375.98 595.49,383.47 595.01,384.65 C594.36,386.24 590.48,388.20 579.82,392.32 C559.34,400.22 537.64,407.00 532.81,407.00 C530.52,407.00 527.95,407.61 527.08,408.36 C524.38,410.68 499.92,414.94 489.05,414.98 C481.56,415.01 483.75,416.50 493.29,417.88 C512.67,420.67 539.91,417.77 567.96,409.93 C573.76,408.31 580.20,406.31 582.27,405.49 C588.59,402.99 589.26,403.33 588.74,408.75 C588.49,411.36 586.61,421.15 584.56,430.50 C580.87,447.30 579.02,464.97 580.38,470.38 C581.10,473.25 581.13,473.27 583.42,472.39 ZM 497.94 408.92 C522.79,406.59 551.10,398.41 574.71,386.73 C584.19,382.04 592.20,375.87 590.73,374.40 C590.38,374.05 586.36,374.50 581.80,375.40 C567.82,378.14 559.15,378.94 542.88,378.97 C510.45,379.03 489.80,371.72 481.23,357.14 C478.91,353.20 478.50,351.37 478.51,345.00 C478.51,338.23 478.88,336.82 482.29,330.50 C484.37,326.65 488.31,320.69 491.05,317.26 C506.07,298.45 545.33,274.18 588.00,257.33 C610.18,248.57 626.51,243.25 656.69,234.97 C676.43,229.55 680.28,225.88 668.30,223.91 C651.28,221.11 618.90,225.05 585.50,233.97 C528.64,249.16 471.17,279.77 442.70,310.02 C424.82,329.01 417.28,345.14 418.20,362.47 C419.36,384.58 435.11,399.58 465.50,407.54 C475.66,410.21 481.55,410.46 497.94,408.92 ZM 894.02 669.27 C894.03,668.85 897.88,664.00 902.58,658.50 C935.47,620.01 958.33,579.86 973.88,533.26 C985.74,497.70 990.71,470.49 994.38,421.00 C994.60,417.98 994.57,424.95 994.30,436.50 C993.63,466.04 993.57,467.44 992.93,468.00 C992.62,468.27 991.58,473.45 990.62,479.50 C979.97,546.70 947.06,613.79 900.58,663.06 C896.96,666.90 894.01,669.69 894.02,669.27 ZM 349.94 656.77 C346.95,653.35 342.89,648.73 340.92,646.52 C327.28,631.17 310.88,605.77 297.92,579.89 C283.54,551.19 275.18,527.11 267.59,492.50 C262.68,470.08 259.23,427.78 260.92,410.50 L 261.70 402.50 L 261.86 412.00 C261.95,417.23 262.48,427.87 263.04,435.66 C267.62,499.60 284.24,553.84 315.27,606.14 C320.36,614.71 320.74,615.31 326.66,623.96 C336.34,638.11 340.50,643.79 346.50,651.02 C354.02,660.09 356.27,663.00 355.78,663.00 C355.56,663.00 352.94,660.20 349.94,656.77 ZM 1010.64 422.95 C1010.33,419.95 1009.85,410.52 1009.57,402.00 C1008.32,364.17 998.34,318.38 982.97,280.00 C967.16,240.53 948.18,208.17 918.72,170.50 L 914.81 165.50 L 919.50 170.50 C948.18,201.09 975.97,247.91 991.33,291.51 C1000.58,317.79 1005.91,339.44 1010.11,367.85 C1012.47,383.80 1013.91,423.56 1012.23,426.55 C1011.39,428.06 1011.09,427.40 1010.64,422.95 ZM 243.58 415.50 C239.87,372.55 254.76,306.55 279.80,255.00 C294.73,224.26 307.88,203.84 329.08,178.50 C339.20,166.40 350.28,154.59 345.96,160.50 C345.16,161.60 344.25,162.73 343.94,163.00 C341.36,165.29 325.38,186.27 317.27,198.00 C299.84,223.23 286.43,247.63 275.04,274.90 C268.54,290.47 259.72,316.82 260.41,318.62 C260.70,319.38 260.45,320.00 259.86,320.00 C259.27,320.00 259.05,320.67 259.36,321.50 C259.68,322.33 259.45,323.00 258.85,323.00 C258.26,323.00 258.00,323.90 258.29,325.00 C258.58,326.10 258.35,327.00 257.79,327.00 C257.23,327.00 257.00,327.90 257.29,329.00 C257.58,330.10 257.38,331.00 256.84,331.00 C256.31,331.00 255.97,331.79 256.09,332.75 C256.21,333.71 256.02,335.17 255.68,336.00 C254.35,339.17 252.99,347.18 253.61,348.18 C253.97,348.75 253.82,349.51 253.28,349.86 C251.54,351.00 246.90,388.23 245.11,415.50 L 244.45 425.50 L 243.58 415.50 ZM 930.67 191.75 C928.74,189.41 923.36,182.77 918.71,177.00 C914.05,171.23 909.74,166.61 909.12,166.75 C908.51,166.89 908.11,166.44 908.25,165.75 C908.39,165.06 907.90,164.62 907.18,164.77 C906.45,164.93 906.12,164.62 906.44,164.09 C906.77,163.57 906.20,162.54 905.19,161.82 C904.17,161.09 902.50,159.20 901.46,157.61 C898.37,152.84 890.62,146.00 889.80,147.32 C889.32,148.10 888.00,147.42 885.74,145.24 C883.18,142.75 882.13,142.27 881.22,143.18 C880.35,144.05 879.45,144.07 877.77,143.27 C876.52,142.67 874.69,141.92 873.71,141.61 C872.25,141.14 872.12,140.65 872.99,139.01 C873.59,137.91 874.54,137.00 875.11,137.00 C876.74,137.00 867.81,128.47 864.28,126.64 C862.55,125.75 860.42,125.29 859.55,125.62 C858.68,125.95 857.38,125.73 856.65,125.12 C855.91,124.51 855.02,124.31 854.66,124.68 C854.30,125.04 854.00,124.63 854.00,123.77 C854.00,122.06 852.00,121.01 848.67,120.98 C846.25,120.96 831.71,110.62 832.70,109.63 C833.05,109.28 832.78,109.00 832.11,109.00 C831.43,109.00 831.16,108.55 831.50,108.00 C831.84,107.45 831.67,107.00 831.13,107.00 C830.58,107.00 829.84,106.06 829.47,104.91 C828.90,103.12 828.29,102.91 825.31,103.47 C822.26,104.04 820.31,103.29 810.16,97.66 C777.64,79.64 752.41,69.59 718.00,60.97 C688.70,53.62 669.59,51.10 637.34,50.30 C591.58,49.16 549.71,55.40 509.50,69.36 C504.00,71.27 497.70,73.15 495.50,73.55 C493.30,73.94 490.38,74.86 489.00,75.60 C484.78,77.86 478.86,80.00 476.82,80.00 C475.75,80.00 475.16,80.45 475.50,81.00 C475.84,81.55 475.23,82.00 474.14,82.00 C473.06,82.00 472.00,82.49 471.81,83.08 C471.61,83.67 469.66,84.40 467.47,84.69 C465.29,84.99 462.31,86.08 460.85,87.11 C459.39,88.15 457.64,89.00 456.96,89.00 C456.29,89.00 454.92,89.94 453.93,91.08 C452.94,92.22 451.39,93.27 450.48,93.40 C449.58,93.53 448.50,94.19 448.09,94.86 C447.68,95.52 446.04,96.31 444.45,96.59 C442.86,96.88 441.10,97.48 440.53,97.92 C438.81,99.26 433.12,100.00 432.48,98.97 C431.58,97.51 428.34,97.81 426.64,99.50 C425.82,100.32 424.69,101.00 424.14,101.00 C423.59,101.00 422.19,102.32 421.04,103.94 C419.89,105.56 418.10,107.15 417.07,107.48 C416.03,107.81 414.48,109.84 413.62,112.00 C411.82,116.49 407.14,119.50 403.40,118.56 C401.66,118.13 400.46,118.60 398.95,120.34 C397.82,121.64 394.67,123.75 391.95,125.03 C389.23,126.30 387.00,127.92 387.00,128.62 C387.00,129.32 385.33,131.16 383.28,132.70 C381.24,134.24 378.83,136.18 377.93,137.00 C375.89,138.88 373.55,140.71 368.48,144.39 C364.70,147.15 360.66,151.12 348.23,164.30 C339.69,173.36 340.92,170.19 349.77,160.33 C382.07,124.35 418.43,97.18 463.24,75.53 C538.08,39.37 623.38,28.96 705.24,45.98 C762.18,57.82 819.06,83.70 857.91,115.45 C880.49,133.90 896.50,149.01 910.93,165.50 C919.36,175.14 935.00,194.67 935.00,195.56 C935.00,196.65 933.93,195.70 930.67,191.75 ZM 790.80 71.95 C785.16,68.66 754.90,57.67 737.50,52.59 C701.14,41.98 675.36,38.10 636.00,37.29 C601.17,36.58 579.68,38.38 549.80,44.52 C526.14,49.38 499.48,57.54 476.58,66.93 C471.13,69.17 466.46,70.79 466.20,70.54 C465.78,70.12 486.37,60.00 487.65,60.00 C487.95,60.00 489.62,59.35 491.35,58.56 C506.76,51.53 531.96,44.14 556.00,39.60 C586.10,33.91 590.51,33.54 628.00,33.53 C664.40,33.53 675.91,34.53 702.60,40.02 C724.66,44.56 751.11,52.51 765.36,58.88 C776.14,63.70 794.51,72.85 793.50,72.90 C792.95,72.92 791.73,72.49 790.80,71.95 ZM 440.97 565.25 C433.73,561.56 431.00,556.50 431.00,546.79 C431.00,538.90 432.33,535.67 437.43,531.20 C446.06,523.62 461.38,526.69 465.77,536.88 C468.08,542.24 467.84,552.58 465.29,557.50 C462.68,562.54 460.15,564.83 455.32,566.55 C449.70,568.56 446.96,568.31 440.97,565.25 ZM 513.50 566.12 C508.74,563.93 506.61,561.70 504.54,556.75 C502.77,552.50 502.51,542.44 504.06,538.32 C508.60,526.31 525.66,523.06 535.75,532.29 C537.79,534.16 538.00,535.26 538.00,544.11 C538.00,557.80 535.88,562.24 527.50,566.11 C522.44,568.44 518.57,568.45 513.50,566.12 ZM 576.63 540.21 C575.58,538.51 580.00,530.97 583.19,529.02 C587.02,526.69 597.22,526.23 601.53,528.19 C604.67,529.63 607.00,533.77 607.00,537.95 L 607.00 541.00 L 592.06 541.00 C583.84,541.00 576.90,540.64 576.63,540.21 ZM 748.50 567.11 C742.46,564.47 740.96,557.58 745.46,553.08 C747.89,550.65 748.73,550.48 759.52,550.16 L 771.00 549.83 L 771.00 554.71 C771.00,559.09 770.59,560.00 767.00,563.50 C763.32,567.09 762.50,567.43 756.75,567.69 C753.31,567.85 749.60,567.59 748.50,567.11 Z" fill="rgb(246,246,243)"/>
</g>
</svg>